<?xml version="1.0" encoding="UTF-8"?><svg xmlns="http://www.w3.org/2000/svg" viewBox="0 0 24 24"><defs><style>.v{fill:#231f20;}</style></defs><g id="a"/><g id="b"/><g id="c"/><g id="d"/><g id="e"/><g id="f"/><g id="g"/><g id="h"/><g id="i"/><g id="j"/><g id="k"/><g id="l"/><g id="m"/><g id="n"/><g id="o"/><g id="p"/><g id="q"/><g id="r"/><g id="s"/><g id="t"/><g id="u"><g><path class="v" d="M5,2.25c-1.52,0-2.75,1.23-2.75,2.75v13c0,1.52,1.23,2.75,2.75,2.75s2.75-1.23,2.75-2.75V5c0-1.52-1.23-2.75-2.75-2.75Zm1.25,15.75c0,.69-.56,1.25-1.25,1.25s-1.25-.56-1.25-1.25V5c0-.69,.56-1.25,1.25-1.25s1.25,.56,1.25,1.25v13Z"/><path class="v" d="M12,7.25c-1.52,0-2.75,1.23-2.75,2.75v8c0,1.52,1.23,2.75,2.75,2.75s2.75-1.23,2.75-2.75V10c0-1.52-1.23-2.75-2.75-2.75Zm1.25,10.75c0,.69-.56,1.25-1.25,1.25s-1.25-.56-1.25-1.25V10c0-.69,.56-1.25,1.25-1.25s1.25,.56,1.25,1.25v8Z"/><path class="v" d="M19,11.25c-1.52,0-2.75,1.23-2.75,2.75v4c0,1.52,1.23,2.75,2.75,2.75s2.75-1.23,2.75-2.75v-4c0-1.52-1.23-2.75-2.75-2.75Zm1.25,6.75c0,.69-.56,1.25-1.25,1.25s-1.25-.56-1.25-1.25v-4c0-.69,.56-1.25,1.25-1.25s1.25,.56,1.25,1.25v4Z"/></g></g></svg>