<?xml version="1.0" encoding="UTF-8"?><svg xmlns="http://www.w3.org/2000/svg" viewBox="0 0 24 24"><defs><style>.v{fill:#fff;}</style></defs><g id="a"/><g id="b"/><g id="c"/><g id="d"><g><path class="v" d="M21.25,11.85c-.33-.38-.82-.6-1.32-.6h-5.93c-.69,0-1.25-.56-1.25-1.25V4.07c0-.5-.22-.98-.6-1.32-.38-.33-.88-.49-1.37-.43C5.78,2.95,2.11,7.23,2.25,12.28c.14,5.08,4.39,9.33,9.47,9.47,.09,0,.19,0,.28,0,4.93,0,9.06-3.62,9.67-8.53,.06-.5-.09-1-.43-1.37Zm-9.48,8.4c-4.3-.12-7.89-3.71-8.01-8.01-.12-4.27,2.98-7.89,7.21-8.42h.03c.08,0,.14,.04,.16,.06,.03,.03,.09,.09,.09,.19v5.93c0,1.52,1.23,2.75,2.75,2.75h5.93c.1,0,.16,.06,.19,.09,.03,.03,.07,.1,.06,.19-.53,4.23-4.12,7.36-8.42,7.21Z"/><path class="v" d="M17,9.75h2.9c.53,0,1.03-.24,1.37-.65,.33-.39,.46-.9,.36-1.4-.53-2.71-2.62-4.8-5.33-5.33-.49-.09-1,.04-1.4,.36-.41,.34-.65,.84-.65,1.37v2.9c0,1.52,1.23,2.75,2.75,2.75Zm-1.25-5.65c0-.08,.04-.16,.1-.21,.04-.03,.08-.05,.13-.05,.01,0,.02,0,.03,0,2.08,.4,3.74,2.07,4.15,4.15,.01,.05,0,.11-.05,.16-.05,.06-.13,.1-.21,.1h-2.9c-.69,0-1.25-.56-1.25-1.25v-2.9Z"/></g></g><g id="e"/><g id="f"/><g id="g"/><g id="h"/><g id="i"/><g id="j"/><g id="k"/><g id="l"/><g id="m"/><g id="n"/><g id="o"/><g id="p"/><g id="q"/><g id="r"/><g id="s"/><g id="t"/><g id="u"/></svg>
